HIERARCHY
ROOT joint_Root
{
	OFFSET 0.0 0.0 0.0
	CHANNELS 6 Xposition Yposition Zposition Zrotation Xrotation Yrotation 
	JOINT Hips
	{
		OFFSET -0.726466 93.3139 -2.00062
		CHANNELS 6 Xposition Yposition Zposition Zrotation Xrotation Yrotation 
		JOINT Spine
		{
			OFFSET 15.7357 0.0 0.0
			CHANNELS 6 Xposition Yposition Zposition Zrotation Xrotation Yrotation 
			JOINT Chest
			{
				OFFSET 8.98455 -0.406207 0.0
				CHANNELS 6 Xposition Yposition Zposition Zrotation Xrotation Yrotation 
				JOINT Neck
				{
					OFFSET 16.3773 0.0 0.0
					CHANNELS 6 Xposition Yposition Zposition Zrotation Xrotation Yrotation 
					JOINT Head
					{
						OFFSET 6.45672 0.0 0.0
						CHANNELS 6 Xposition Yposition Zposition Zrotation Xrotation Yrotation 
						End Site
						{
							OFFSET 0.0 0.0 0.0
						}
					}
				}
				JOINT Shoulder_L
				{
					OFFSET 12.9942 -0.242716 4.98039
					CHANNELS 6 Xposition Yposition Zposition Zrotation Xrotation Yrotation 
					JOINT UpperArm_L
					{
						OFFSET 5.34809 0.0 0.0
						CHANNELS 6 Xposition Yposition Zposition Zrotation Xrotation Yrotation 
						JOINT LowerArm_L
						{
							OFFSET 24.3286 1.87007e-05 0.0
							CHANNELS 6 Xposition Yposition Zposition Zrotation Xrotation Yrotation 
							JOINT Hand_L
							{
								OFFSET 22.2916 0.0 0.0
								CHANNELS 6 Xposition Yposition Zposition Zrotation Xrotation Yrotation 
								End Site
								{
									OFFSET 0.0 0.0 0.0
								}
							}
						}
					}
				}
				JOINT Shoulder_R
				{
					OFFSET 12.9945 -0.242716 -4.98039
					CHANNELS 6 Xposition Yposition Zposition Zrotation Xrotation Yrotation 
					JOINT UpperArm_R
					{
						OFFSET -5.34813 0.0 0.0
						CHANNELS 6 Xposition Yposition Zposition Zrotation Xrotation Yrotation 
						JOINT LowerArm_R
						{
							OFFSET -24.3289 0.000322201 0.0
							CHANNELS 6 Xposition Yposition Zposition Zrotation Xrotation Yrotation 
							JOINT Hand_R
							{
								OFFSET -22.2915 -0.000108084 0.0
								CHANNELS 6 Xposition Yposition Zposition Zrotation Xrotation Yrotation 
								End Site
								{
									OFFSET 0.0 0.0 0.0
								}
							}
						}
					}
				}
			}
		}
		JOINT UpperLeg_L
		{
			OFFSET -2.19248 -6.46944 0.0
			CHANNELS 6 Xposition Yposition Zposition Zrotation Xrotation Yrotation 
			JOINT LowerLeg_L
			{
				OFFSET 39.0811 0.0 -1.23785e-05
				CHANNELS 6 Xposition Yposition Zposition Zrotation Xrotation Yrotation 
				JOINT Foot_L
				{
					OFFSET 40.9854 0.0 -1.26872e-05
					CHANNELS 6 Xposition Yposition Zposition Zrotation Xrotation Yrotation 
					JOINT Toes_L
					{
						OFFSET 11.7543 0.0 0.0
						CHANNELS 6 Xposition Yposition Zposition Zrotation Xrotation Yrotation 
						End Site
						{
							OFFSET 0.0 0.0 0.0
						}
					}
				}
			}
		}
		JOINT UpperLeg_R
		{
			OFFSET -2.19251 6.46944 0.0
			CHANNELS 6 Xposition Yposition Zposition Zrotation Xrotation Yrotation 
			JOINT LowerLeg_R
			{
				OFFSET -39.0811 -0.00228153 -0.0401928
				CHANNELS 6 Xposition Yposition Zposition Zrotation Xrotation Yrotation 
				JOINT Foot_R
				{
					OFFSET -40.9854 0.0 0.0
					CHANNELS 6 Xposition Yposition Zposition Zrotation Xrotation Yrotation 
					JOINT Toes_R
					{
						OFFSET -11.7543 0.0 0.0
						CHANNELS 6 Xposition Yposition Zposition Zrotation Xrotation Yrotation 
						End Site
						{
							OFFSET 0.0 0.0 0.0
						}
					}
				}
			}
		}
	}
}
MOTION
Frames:	8
Frame Time:	0.0333333
0.000000 0.000000 0.000000 0.000000 0.000000 -0.000000 -0.965939 92.377300 -1.350270 88.079400 -0.455115 3.903360 15.735700 0.000005 -0.000001 87.339700 85.475400 -87.205200 8.984550 -0.406207 -0.000000 1.274020 -0.427446 0.273532 16.377300 -0.000001 -0.000001 4.524170 -2.575340 0.422414 6.456720 -0.000001 -0.000000 4.626930 -1.896110 0.556068 12.994200 -0.242716 4.980390 -89.955200 -0.143737 -72.695300 5.348090 -0.000007 -0.000001 -67.805500 37.197200 -15.113200 24.328600 0.000019 0.000005 2.239980 5.073950 -23.855000 22.291600 -0.000001 0.000005 3.022950 5.468370 -5.314690 12.994500 -0.242716 -4.980390 87.833100 6.436200 -71.348300 -5.348130 -0.000001 -0.000004 -65.732100 40.777200 -15.618300 -24.328900 0.000322 -0.000009 2.821690 8.607770 -18.233500 -22.291500 -0.000108 -0.000004 5.353180 5.346320 -1.264300 -2.192480 -6.469440 -0.000000 -175.417000 -6.155320 -3.226750 39.081100 -0.000007 -0.000012 -0.107182 0.256520 22.676800 40.985400 -0.000006 -0.000013 -0.386160 3.544430 -65.757600 11.754300 -0.000000 0.000003 -0.000036 -0.000421 -16.594000 -2.192510 6.469440 -0.000001 179.827000 13.532600 179.105000 -39.081100 -0.002282 -0.040193 -0.052235 0.157669 19.410800 -40.985400 0.000008 0.000006 2.758410 7.567590 -65.033100 -11.754300 -0.000006 -0.000006 -0.007334 -0.082508 -19.932300
0.000000 0.000000 0.000000 0.000000 0.000000 -0.000000 -0.966255 92.378800 -1.379170 88.083800 -0.442860 3.882020 15.735700 0.000005 -0.000001 87.214500 85.519900 -87.102100 8.984550 -0.406207 -0.000000 1.184040 -0.441695 0.229279 16.377300 -0.000001 -0.000001 4.450090 -2.578190 0.479034 6.456720 -0.000001 -0.000000 4.555760 -1.856970 0.539406 12.994200 -0.242716 4.980390 -89.970500 -0.093520 -72.488000 5.348090 -0.000007 -0.000001 -68.183000 34.885100 -14.788500 24.328600 0.000019 0.000005 2.417050 4.997720 -25.858900 22.291600 -0.000001 0.000005 2.451860 5.488400 -6.074310 12.994500 -0.242716 -4.980390 87.840400 6.270880 -70.953100 -5.348130 -0.000001 -0.000004 -65.449500 40.477600 -16.323400 -24.328900 0.000322 -0.000009 3.161200 9.167220 -19.124300 -22.291500 -0.000108 -0.000004 3.142330 5.320580 -0.505493 -2.192480 -6.469440 -0.000000 -175.427000 -6.213280 -3.278330 39.081100 -0.000007 -0.000012 -0.105886 0.253311 22.685400 40.985400 -0.000006 -0.000013 -0.374409 3.568500 -65.735300 11.754300 -0.000000 0.000003 -0.000034 -0.000407 -16.593400 -2.192510 6.469440 -0.000001 179.833000 13.532900 179.060000 -39.081100 -0.002282 -0.040193 -0.053214 0.160436 19.412100 -40.985400 0.000008 0.000006 2.718670 7.558690 -65.006600 -11.754300 -0.000006 -0.000006 -0.007387 -0.082954 -19.950500
0.000000 0.000000 0.000000 0.000000 0.000000 -0.000000 -0.991800 92.386400 -1.421730 88.098500 -0.329041 3.913280 15.735700 0.000005 -0.000001 86.965800 85.560100 -86.886100 8.984550 -0.406207 -0.000000 1.101720 -0.474460 0.163731 16.377300 -0.000001 -0.000001 4.475820 -2.597090 0.462505 6.456720 -0.000001 -0.000000 4.531940 -1.892500 0.648887 12.994200 -0.242716 4.980390 -89.957900 -0.131434 -72.245400 5.348090 -0.000007 -0.000001 -67.464800 32.653200 -15.859800 24.328600 0.000019 0.000005 1.401560 2.572320 -28.608900 22.291600 -0.000001 0.000005 1.984890 5.501790 -6.605840 12.994500 -0.242716 -4.980390 87.856100 6.084540 -70.548100 -5.348130 -0.000001 -0.000004 -64.813600 38.989100 -17.436700 -24.328900 0.000322 -0.000009 3.762330 9.709090 -21.308500 -22.291500 -0.000108 -0.000004 0.246477 5.295640 0.198886 -2.192480 -6.469440 -0.000000 -175.413000 -6.224450 -3.271290 39.081100 -0.000007 -0.000012 -0.107432 0.257565 22.641500 40.985400 -0.000006 -0.000013 -0.368180 3.694600 -65.671600 11.754300 -0.000000 0.000003 -0.000032 -0.000381 -16.592400 -2.192510 6.469440 -0.000001 179.841000 13.583100 179.085000 -39.081100 -0.002282 -0.040193 -0.051014 0.154327 19.396500 -40.985400 0.000008 0.000006 2.817370 7.497220 -65.002900 -11.754300 -0.000006 -0.000006 -0.007490 -0.083817 -19.985700
0.000000 0.000000 0.000000 0.000000 0.000000 -0.000000 -1.015510 92.379900 -1.529710 88.088100 -0.183858 4.009430 15.735700 0.000005 -0.000001 86.887200 85.571600 -86.817300 8.984550 -0.406207 -0.000000 1.077990 -0.484814 0.144330 16.377300 -0.000001 -0.000001 4.570290 -2.631470 0.471164 6.456720 -0.000001 -0.000000 4.573580 -1.979720 0.643588 12.994200 -0.242716 4.980390 -89.976600 -0.073029 -72.232900 5.348090 -0.000007 -0.000001 -65.061000 30.383200 -18.908900 24.328600 0.000019 0.000005 1.407190 2.251750 -32.002400 22.291600 -0.000001 0.000005 2.376250 5.512510 -7.043100 12.994500 -0.242716 -4.980390 87.897100 5.883340 -70.291300 -5.348130 -0.000001 -0.000004 -62.818300 37.006400 -19.977000 -24.328900 0.000322 -0.000009 4.122500 9.142810 -24.406300 -22.291500 -0.000108 -0.000004 -1.665630 5.288740 0.386020 -2.192480 -6.469440 -0.000000 -175.406000 -6.042670 -3.341100 39.081100 -0.000007 -0.000012 -0.104539 0.249163 22.761000 40.985400 -0.000006 -0.000013 -0.376311 3.680810 -65.637100 11.754300 -0.000000 0.000003 -0.000033 -0.000393 -16.592900 -2.192510 6.469440 -0.000001 179.859000 13.655500 179.066000 -39.081100 -0.002282 -0.040193 -0.052534 0.157827 19.489300 -40.985400 0.000008 0.000006 2.775170 7.409150 -64.973500 -11.754300 -0.000006 -0.000006 -0.007648 -0.085136 -20.039500
0.000000 0.000000 0.000000 0.000000 0.000000 -0.000000 -1.034500 92.373900 -1.691010 88.113900 -0.105005 4.272280 15.735700 0.000005 -0.000001 86.899800 85.556400 -86.851400 8.984550 -0.406207 -0.000000 1.108360 -0.483237 0.101349 16.377300 -0.000001 -0.000001 4.804390 -2.592400 0.402849 6.456720 -0.000001 -0.000000 4.818120 -1.947640 0.735890 12.994200 -0.242716 4.980390 -89.956000 -0.138721 -72.384800 5.348090 -0.000007 -0.000001 -61.772800 27.294400 -23.417100 24.328600 0.000019 0.000005 2.707230 3.736620 -35.947200 22.291600 -0.000001 0.000005 3.487350 5.525930 -7.613030 12.994500 -0.242716 -4.980390 87.900600 5.801200 -70.065700 -5.348130 -0.000001 -0.000004 -59.442100 34.151100 -24.194500 -24.328900 0.000322 -0.000009 5.014070 9.362160 -28.343500 -22.291500 -0.000108 -0.000004 -1.555210 5.281860 0.575876 -2.192480 -6.469440 -0.000000 -175.401000 -6.021250 -3.247830 39.081100 -0.000007 -0.000012 -0.105839 0.251062 22.858700 40.985400 -0.000006 -0.000013 -0.373326 3.720760 -65.568100 11.754300 -0.000000 0.000003 -0.000036 -0.000424 -16.594100 -2.192510 6.469440 -0.000001 179.801000 13.670500 179.151000 -39.081100 -0.002282 -0.040193 -0.054362 0.161676 19.635800 -40.985400 0.000008 0.000006 2.704840 7.350140 -64.927300 -11.754300 -0.000006 -0.000006 -0.007489 -0.083805 -19.985200
0.000000 0.000000 0.000000 0.000000 0.000000 -0.000000 -1.025400 92.360800 -1.831750 88.115400 -0.048686 4.627090 15.735700 0.000005 -0.000001 86.115100 85.534000 -86.055500 8.984550 -0.406207 -0.000000 1.145790 -0.608335 0.125297 16.377300 -0.000001 -0.000001 5.195890 -2.507530 0.318628 6.456720 -0.000001 -0.000000 5.069950 -1.685190 0.701730 12.994200 -0.242716 4.980390 -89.910500 -0.287599 -72.708200 5.348090 -0.000007 -0.000001 -58.478700 22.835000 -28.178100 24.328600 0.000019 0.000005 4.019610 4.628980 -41.042900 22.291600 -0.000001 0.000005 5.231040 5.544230 -8.428600 12.994500 -0.242716 -4.980390 87.924700 5.668440 -69.853400 -5.348130 -0.000001 -0.000004 -55.454400 30.185200 -29.725600 -24.328900 0.000322 -0.000009 6.361950 9.895840 -32.973900 -22.291500 -0.000108 -0.000004 0.210218 5.282700 0.547343 -2.192480 -6.469440 -0.000000 -175.379000 -6.009190 -3.080380 39.081100 -0.000007 -0.000012 -0.104657 0.246330 23.019000 40.985400 -0.000006 -0.000013 -0.339433 3.800800 -65.545400 11.754300 -0.000000 0.000003 -0.000033 -0.000392 -16.592800 -2.192510 6.469440 -0.000001 179.691000 13.741500 179.361000 -39.081100 -0.002282 -0.040193 -0.059812 0.175668 19.768200 -40.985400 0.000008 0.000006 2.523750 7.418270 -64.875500 -11.754300 -0.000006 -0.000006 -0.007625 -0.084939 -20.031500
0.000000 0.000000 0.000000 0.000000 0.000000 -0.000000 -1.002070 92.354900 -1.997570 88.105900 -0.148247 4.818240 15.735700 0.000005 -0.000001 85.696600 85.561900 -85.631400 8.984550 -0.406207 -0.000000 1.085510 -0.669566 0.136620 16.377300 -0.000001 -0.000001 5.408460 -2.397210 0.353953 6.456720 -0.000001 -0.000000 5.483070 -1.411860 0.630116 12.994200 -0.242716 4.980390 -89.818600 -0.588887 -72.879900 5.348090 -0.000007 -0.000001 -55.931600 17.038900 -33.132400 24.328600 0.000019 0.000005 5.127500 4.749120 -47.294700 22.291600 -0.000001 0.000005 7.170030 5.557780 -9.072670 12.994500 -0.242716 -4.980390 87.988200 5.501910 -69.878800 -5.348130 -0.000001 -0.000004 -52.306600 24.358700 -35.140200 -24.328900 0.000322 -0.000009 8.350850 10.357900 -39.224900 -22.291500 -0.000108 -0.000004 2.108860 5.281220 0.594452 -2.192480 -6.469440 -0.000000 -175.378000 -6.079020 -3.050610 39.081100 -0.000007 -0.000012 -0.102990 0.240948 23.143600 40.985400 -0.000006 -0.000013 -0.325436 3.730130 -65.502400 11.754300 -0.000000 0.000003 -0.000029 -0.000351 -16.591300 -2.192510 6.469440 -0.000001 179.643000 13.665200 179.388000 -39.081100 -0.002282 -0.040193 -0.064833 0.188722 19.856500 -40.985400 0.000008 0.000006 2.314450 7.479240 -64.762600 -11.754300 -0.000006 -0.000006 -0.007506 -0.083952 -19.991200
0.000000 0.000000 0.000000 0.000000 0.000000 -0.000000 -0.952779 92.364700 -2.148930 88.093900 -0.389965 4.936820 15.735700 0.000005 -0.000001 85.968400 85.610900 -85.879400 8.984550 -0.406207 -0.000000 0.990961 -0.622168 0.183271 16.377300 -0.000001 -0.000001 5.585120 -2.291110 0.349582 6.456720 -0.000001 -0.000000 5.591400 -1.228460 0.611948 12.994200 -0.242716 4.980390 -89.639200 -1.181550 -73.019300 5.348090 -0.000007 -0.000001 -54.566800 10.418700 -37.900500 24.328600 0.000019 0.000005 6.932430 4.914420 -54.821800 22.291600 -0.000001 0.000005 9.018530 5.566790 -9.517340 12.994500 -0.242716 -4.980390 88.131200 5.110750 -69.883100 -5.348130 -0.000001 -0.000004 -50.105300 17.631900 -40.472800 -24.328900 0.000322 -0.000009 11.754500 11.170800 -47.037200 -22.291500 -0.000108 -0.000004 5.148850 5.284510 0.503051 -2.192480 -6.469440 -0.000000 -175.378000 -6.237500 -3.006890 39.081100 -0.000007 -0.000012 -0.103658 0.242460 23.148000 40.985400 -0.000006 -0.000013 -0.302271 3.678810 -65.418500 11.754300 -0.000000 0.000003 -0.000030 -0.000365 -16.591800 -2.192510 6.469440 -0.000001 179.611000 13.556400 179.394000 -39.081100 -0.002282 -0.040193 -0.065088 0.189695 19.830800 -40.985400 0.000008 0.000006 2.159680 7.629930 -64.595200 -11.754300 -0.000006 -0.000006 -0.007434 -0.083348 -19.966500
